<svg xmlns="http://www.w3.org/2000/svg" width="102.693" height="42.309" viewBox="0 0 102.693 42.309">
  <g id="Betnext-01" transform="translate(-20.338 -28.52)">
    <path id="Path_1192" data-name="Path 1192" d="M31.956,196.127s4.029-.529,4.029-4.441S30.9,186.98,29.6,186.98H20.338c0,3.118,2.47,2.706,2.47,2.706V203.1c-2.529,0-2.47,2.735-2.47,2.735h8.883c1.5,0,7.573-.559,7.573-4.867S31.956,196.127,31.956,196.127Zm-2.971,6.932H26.75v-5.235h1.941c.382,0,3.118.147,3.118,2.324A2.953,2.953,0,0,1,28.985,203.059Zm0-8.139H26.75v-5.235h1.941c.382,0,3.118.147,3.118,2.324A2.952,2.952,0,0,1,28.985,194.92Z" transform="translate(0 -147.886)" fill="#fff"/>
    <path id="Path_1193" data-name="Path 1193" d="M299.467,279.148c-2.184-1.39-7.28-.86-8.89,2.184s-.794,9.11,3.993,9.838,6.442-1.279,6.442-1.279l-.176-2.316c-.353.441-3.331,1.963-5.074,1.147s-1.875-3.287-1.875-3.287h7.963C302.312,282.92,301.651,280.538,299.467,279.148Zm-5.581,4.324a2.619,2.619,0,0,1,2.47-2.537c1.963,0,2.007,2.537,2.007,2.537Z" transform="translate(-251.503 -233.223)" fill="#fff"/>
    <path id="Path_1194" data-name="Path 1194" d="M497.076,242.779c-3.324.97-3.294-.912-3.294-2.029v-4.956h3.3v-2.36h-3.3V229.72l-2.522.47-1.037,3.066a5.27,5.27,0,0,0-1.412.088c-.9.154-.75,2.382-.75,2.382H490.2s.066.948,0,4.986,1.5,4.919,3.22,5.166a8.829,8.829,0,0,0,3.816-.6Z" transform="translate(-436.501 -187.774)" fill="#fff"/>
    <path id="Path_1195" data-name="Path 1195" d="M659.461,278.819l5.515-.463v1.654a5.342,5.342,0,0,1,4.147-1.919,3.907,3.907,0,0,1,4.1,3.684c.111,1.566,0,6.353,0,6.353l2.073.463v2.139h-6.751v-2.206l1.169-.375v-5.361c0-.948-.9-1.7-2.514-1.7A2.212,2.212,0,0,0,665,282.964c-.022.442,0,5.118,0,5.118l1.147.463v2.184h-6.684v-2.073l1.941-.485V281.2A2.041,2.041,0,0,1,659.461,278.819Z" transform="translate(-596.453 -232.916)" fill="#fff"/>
    <path id="Path_1196" data-name="Path 1196" d="M928.458,286.4s.838-3.86-1.809-5.868-8.052-1.235-9.6,2.007-.265,7.258,2.007,8.757,6.816,1.059,8.471-.375l-.11-2.382a7.765,7.765,0,0,1-4.1,1.368c-2.1-.066-2.978-2.559-2.934-3.507Zm-5.471-4.5c1.72.044,2.007,2.448,2.007,2.448H920.45A2.634,2.634,0,0,1,922.987,281.9Z" transform="translate(-836.244 -234.168)" fill="#fff"/>
    <path id="Path_1197" data-name="Path 1197" d="M1014.182,36.108l-3.573-2.25,10.235-5.339-1.676,11.338-3.441-2.735-7.28,10.853-7.588-10.588h-4.677l8.6,12.794L990.578,70.829H988.02l14.339-20.647-10.5-15.088,10.323.044,6.089,9.044Z" transform="translate(-903.107)" fill="#f9d241"/>
    <path id="Path_1198" data-name="Path 1198" d="M1327.84,274.6l4.015-6.089v12.265Z" transform="translate(-1220.25 -223.975)" fill="#f9d241"/>
    <path id="Path_1199" data-name="Path 1199" d="M1233.96,412.117l7.059-.309-3.53-5.118Z" transform="translate(-1132.635 -352.934)" fill="#f9d241"/>
    <path id="Path_1200" data-name="Path 1200" d="M1415.113,263.22l-4.633,5.692h2.316v6a3.474,3.474,0,0,0,2.669,3.088,7.942,7.942,0,0,0,4.942-.662v-2.36a5.774,5.774,0,0,1-2.956.97,2.275,2.275,0,0,1-2.448-2.426v-4.434l2.493-.243v-2.426l-2.382-.154Z" transform="translate(-1297.375 -219.038)" fill="#f9d241"/>
  </g>
</svg>
